name ./resultDataOpenSim/trcMotMarkerGrf/sub10/grf-01-03.mot
datacolumns 19
datarows 15
range 1.44400000 1.50000000
endheader

                time	     ground_force_vx	     ground_force_vy	     ground_force_vz	     ground_force_px	     ground_force_py	     ground_force_pz	   l_ground_force_vx	   l_ground_force_vy	   l_ground_force_vz	   l_ground_force_px	   l_ground_force_py	   l_ground_force_pz	     ground_torque_x	     ground_torque_y	     ground_torque_z	   l_ground_torque_x	   l_ground_torque_y	   l_ground_torque_z	
          1.44400000	        -21.78399414	        390.70673490	        -26.03530059	          0.83992633	          0.00000000	          0.13683990	          0.00000000	          0.00000000	          0.00000000	          0.00000000	          0.00000000	          0.00000000	          0.00000000	          3.10986359	          0.00000000	          0.00000000	          0.00000000	          0.00000000	
          1.44800000	        -19.51107837	        390.78189360	        -26.31894472	          0.83939815	          0.00000000	          0.13688660	          0.00000000	          0.00000000	          0.00000000	          0.00000000	          0.00000000	          0.00000000	          0.00000000	          3.19704304	          0.00000000	          0.00000000	          0.00000000	          0.00000000	
          1.45200000	        -18.24512619	        391.80805059	        -26.81391085	          0.83888151	          0.00000000	          0.13695550	          0.00000000	          0.00000000	          0.00000000	          0.00000000	          0.00000000	          0.00000000	          0.00000000	          3.35375658	          0.00000000	          0.00000000	          0.00000000	          0.00000000	
          1.45600000	        -17.69030167	        393.83675286	        -27.42170270	          0.83837684	          0.00000000	          0.13703155	          0.00000000	          0.00000000	          0.00000000	          0.00000000	          0.00000000	          0.00000000	          0.00000000	          3.56380145	          0.00000000	          0.00000000	          0.00000000	          0.00000000	
          1.46000000	        -17.32864246	        396.87999483	        -28.03472503	          0.83784432	          0.00000000	          0.13709662	          0.00000000	          0.00000000	          0.00000000	          0.00000000	          0.00000000	          0.00000000	          0.00000000	          3.79532294	          0.00000000	          0.00000000	          0.00000000	          0.00000000	
          1.46400000	        -16.56969457	        400.88555325	        -28.55627108	          0.83721788	          0.00000000	          0.13714297	          0.00000000	          0.00000000	          0.00000000	          0.00000000	          0.00000000	          0.00000000	          0.00000000	          4.01102158	          0.00000000	          0.00000000	          0.00000000	          0.00000000	
          1.46800000	        -14.92315985	        405.73256372	        -28.91361563	          0.83642297	          0.00000000	          0.13718296	          0.00000000	          0.00000000	          0.00000000	          0.00000000	          0.00000000	          0.00000000	          0.00000000	          4.18019237	          0.00000000	          0.00000000	          0.00000000	          0.00000000	
          1.47200000	        -12.14243163	        411.26930928	        -29.07357891	          0.83542023	          0.00000000	          0.13723964	          0.00000000	          0.00000000	          0.00000000	          0.00000000	          0.00000000	          0.00000000	          0.00000000	          4.28808551	          0.00000000	          0.00000000	          0.00000000	          0.00000000	
          1.47600000	         -8.29001300	        417.37696654	        -29.05987612	          0.83423748	          0.00000000	          0.13732936	          0.00000000	          0.00000000	          0.00000000	          0.00000000	          0.00000000	          0.00000000	          0.00000000	          4.33944894	          0.00000000	          0.00000000	          0.00000000	          0.00000000	
          1.48000000	         -3.70712703	        424.01101978	        -28.96045312	          0.83295024	          0.00000000	          0.13744462	          0.00000000	          0.00000000	          0.00000000	          0.00000000	          0.00000000	          0.00000000	          0.00000000	          4.35578286	          0.00000000	          0.00000000	          0.00000000	          0.00000000	
          1.48400000	          1.09429905	        431.19185089	        -28.91500980	          0.83166559	          0.00000000	          0.13755958	          0.00000000	          0.00000000	          0.00000000	          0.00000000	          0.00000000	          0.00000000	          0.00000000	          4.36821234	          0.00000000	          0.00000000	          0.00000000	          0.00000000	
          1.48800000	          5.57759877	        438.96588853	        -29.07899415	          0.83050132	          0.00000000	          0.13765442	          0.00000000	          0.00000000	          0.00000000	          0.00000000	          0.00000000	          0.00000000	          0.00000000	          4.40881611	          0.00000000	          0.00000000	          0.00000000	          0.00000000	
          1.49200000	          9.31915951	        447.37626421	        -29.57247874	          0.82954031	          0.00000000	          0.13772829	          0.00000000	          0.00000000	          0.00000000	          0.00000000	          0.00000000	          0.00000000	          0.00000000	          4.50274725	          0.00000000	          0.00000000	          0.00000000	          0.00000000	
          1.49600000	         12.09996605	        456.45511839	        -30.43813864	          0.82882503	          0.00000000	          0.13778020	          0.00000000	          0.00000000	          0.00000000	          0.00000000	          0.00000000	          0.00000000	          0.00000000	          4.66246326	          0.00000000	          0.00000000	          0.00000000	          0.00000000	
          1.50000000	         13.93787196	        466.21409059	        -31.62894381	          0.82837734	          0.00000000	          0.13779526	          0.00000000	          0.00000000	          0.00000000	          0.00000000	          0.00000000	          0.00000000	          0.00000000	          4.88473365	          0.00000000	          0.00000000	          0.00000000	          0.00000000	
